<?xml version="1.0" ?><svg height="128" viewBox="0 0 128 128" width="128" xmlns="http://www.w3.org/2000/svg"><defs><style>.cls-1{fill:#ffc960;}.cls-2{fill:#79c651;}.cls-3{fill:none;stroke:#252d32;stroke-linecap:round;stroke-linejoin:round;stroke-width:3px;}</style></defs><title/><g id="Icons"><path class="cls-1" d="M35.74,65.39a10,10,0,0,1,5.5,1.67c1.11,1.11,12.18,1.11,15.51,2.22,2.35.78,5.53,5.54,5.53,7.75,0,1.57-1,9.28-4.43,10-5.53,1.11-10,3.32-11.07,10-.55,3.28-4,6.26-5.54,6.64-4.43,1.11-4.43-5.53-3.32-10s2.21-6.65,1.1-10-2.21-7.76-6.64-10c-2.22-1.11-9.45-4.49-7.25-6.7S33.43,65.39,35.74,65.39Z"/><path class="cls-2" d="M99.31,3a18,18,0,0,0-18,18c0,11.83,18,33.49,18,33.49s18-21.66,18-33.49A18,18,0,0,0,99.31,3Zm0,24.12A6.08,6.08,0,0,1,93,20.79a6.36,6.36,0,1,1,12.71,0A6.07,6.07,0,0,1,99.31,27.12Z"/><path class="cls-3" d="M117.31,21c0,11.83-18,33.49-18,33.49S81.3,32.83,81.3,21a18,18,0,0,1,36,0Z"/><circle class="cls-3" cx="99.31" cy="20.79" r="5.82"/><path class="cls-2" d="M35,16.47A14.06,14.06,0,0,0,20.9,30.53C20.9,39.76,35,56.67,35,56.67S49,39.76,49,30.53A14.06,14.06,0,0,0,35,16.47ZM35,35.3a4.74,4.74,0,0,1-5-4.94,4.76,4.76,0,0,1,5-5,4.76,4.76,0,0,1,5,5A4.74,4.74,0,0,1,35,35.3Z"/><path class="cls-3" d="M49,30.53c0,9.23-14,26.14-14,26.14S20.9,39.76,20.9,30.53a14.05,14.05,0,1,1,28.1,0Z"/><circle class="cls-3" cx="34.95" cy="30.36" r="4.55"/><path class="cls-1" d="M83.46,55.35c-4.43,2.21-9.27.33-10.65,3.4-1.52,3.39-1.34,6-1.66,8.31-1.11,7.76,4.43,5.54,10,4.43s11-2.59,6.65,8.86c-1.46,3.9.18,7.36,1.11,10C90.05,93.65,91,95.73,92.19,97c4.22,4.22,3.32-10,7.75-14.4s8.87-4.43,8.87-10c0-3.85-.74-10.29-7.2-10.52-4.17-.15-9.48,3.45-8.43-2.84C94,54.6,89.06,52.55,83.46,55.35Z"/><path class="cls-3" d="M78.43,33.76c-1.89.9-3.47,2.05-4,4.5-1.11,5.54,4.43,2.22,3.32,10-.53,3.69-4.16,6.9-5.54,10-1.51,3.39-.78,6.56-1.1,8.86-1.11,7.76,4.43,5.54,10,4.43s11-2.59,6.65,8.86c-1.46,3.9.18,7.36,1.11,10C90.05,93.65,91,95.73,92.19,97c4.22,4.22,3.32-10,7.75-14.4s8.87-4.43,8.87-10,7.75-12.18,7.75-12.18"/><path class="cls-3" d="M38.93,63.78a9.88,9.88,0,0,0,2.31,3.28c1.11,1.11,12.18,1.11,15.51,2.22,2.35.78,5.53,5.54,5.53,7.75,0,1.57-1,9.28-4.43,10-5.53,1.11-10,3.32-11.07,10-.55,3.28-4,6.26-5.54,6.64-4.43,1.11-4.43-5.53-3.32-10s2.21-6.65,1.1-10-2.21-7.76-6.64-10-10-5.54-12.19-12.19-6.38-7.36-6.38-7.36"/><path class="cls-3" d="M49.83,17.08a52.8,52.8,0,0,1,25.25-1"/><path class="cls-3" d="M112.34,45.85A52.5,52.5,0,1,1,18.27,42.6"/></g></svg>